<?xml version="1.0" encoding="iso-8859-1"?>
<!-- Generator: Adobe Illustrator 19.0.0, SVG Export Plug-In . SVG Version: 6.00 Build 0)  -->
<svg version="1.1" id="Capa_1" xmlns="http://www.w3.org/2000/svg" xmlns:xlink="http://www.w3.org/1999/xlink" x="0px" y="0px"
	 viewBox="0 0 490 490" style="enable-background:new 0 0 490 490;" xml:space="preserve">
<g id="Business_1_Bold_49_">
	<path d="M391.495,127.323c-18.635,0-33.749,15.114-33.749,33.749c0,2.756,0.429,5.405,1.057,7.978l-48.632,42.431
		c-3.905-1.577-8.162-2.496-12.633-2.496c-6.462,0-12.449,1.914-17.579,5.068l-79.702-50.133c0.076-0.949,0.291-1.868,0.291-2.848
		c0-18.635-15.113-33.749-33.749-33.749c-18.635,0-33.749,15.113-33.749,33.749c0,4.854,1.072,9.448,2.909,13.628l-29.553,35.326
		c-2.542-0.612-5.16-1.026-7.886-1.026c-18.635,0-33.749,15.113-33.749,33.749c0,18.635,15.113,33.749,33.749,33.749
		c18.635,0,33.749-15.113,33.749-33.749c0-4.548-0.934-8.881-2.557-12.847l29.997-35.846c2.297,0.49,4.655,0.781,7.09,0.781
		c6.355,0,12.219-1.853,17.288-4.9l79.962,50.302c-0.061,0.842-0.26,1.654-0.26,2.527c0,18.635,15.113,33.749,33.749,33.749
		c18.635,0,33.749-15.113,33.749-33.749c0-2.802-0.444-5.482-1.087-8.1l48.556-42.354c3.935,1.608,8.238,2.527,12.755,2.527
		c18.635,0,33.749-15.113,33.749-33.749C425.259,142.452,410.13,127.323,391.495,127.323z"/>
	<path d="M229.687,381.542v54.865H126.328v30.625h237.344v-30.625H260.313v-54.865h214.375c8.422,0,15.312-6.891,15.312-15.312
		V38.281c0-8.422-6.891-15.313-15.312-15.313H15.312C6.891,22.969,0,29.859,0,38.281v327.948c0,8.422,6.891,15.312,15.312,15.312
		H229.687z M30.625,53.594h428.75v297.323H30.625V53.594z"/>
</g>
<g>
</g>
<g>
</g>
<g>
</g>
<g>
</g>
<g>
</g>
<g>
</g>
<g>
</g>
<g>
</g>
<g>
</g>
<g>
</g>
<g>
</g>
<g>
</g>
<g>
</g>
<g>
</g>
<g>
</g>
</svg>
