<?xml version="1.0" encoding="iso-8859-1"?>
<!-- Generator: Adobe Illustrator 16.0.0, SVG Export Plug-In . SVG Version: 6.00 Build 0)  -->
<!DOCTYPE svg PUBLIC "-//W3C//DTD SVG 1.1//EN" "http://www.w3.org/Graphics/SVG/1.1/DTD/svg11.dtd">
<svg version="1.1" id="Capa_1" xmlns="http://www.w3.org/2000/svg" xmlns:xlink="http://www.w3.org/1999/xlink" x="0px" y="0px"
	 viewBox="0 0 597.264 597.264" style="enable-background:new 0 0 597.264 597.264;"
	 xml:space="preserve">
<g>
	<g>
		<g>
			<path d="M208.744,0.5H59.67C27.612,0.5,1.53,26.582,1.53,58.64v479.983c0,32.059,26.082,58.141,58.14,58.141h149.074
				c32.058,0,58.14-26.082,58.14-58.141V58.64C266.884,26.583,240.802,0.5,208.744,0.5z M224.044,538.625
				c0,8.449-6.85,15.299-15.3,15.299H59.67c-8.45,0-15.3-6.85-15.3-15.299V58.64c0-8.45,6.85-15.3,15.3-15.3h149.074
				c8.45,0,15.3,6.85,15.3,15.3V538.625z" fill="white"/>
			<path d="M208.744,597.264H59.67c-32.334,0-58.64-26.306-58.64-58.641V58.64C1.03,26.306,27.335,0,59.67,0h149.074
				c32.334,0,58.64,26.306,58.64,58.64v479.983C267.384,570.958,241.078,597.264,208.744,597.264z M59.67,1
				C27.887,1,2.03,26.857,2.03,58.64v479.983c0,31.783,25.857,57.641,57.64,57.641h149.074c31.783,0,57.64-25.857,57.64-57.641
				V58.64c0-31.783-25.857-57.64-57.64-57.64H59.67z M208.744,554.424H59.67c-8.712,0-15.8-7.087-15.8-15.799V58.64
				c0-8.712,7.088-15.8,15.8-15.8h149.074c8.712,0,15.8,7.088,15.8,15.8v479.985C224.544,547.337,217.456,554.424,208.744,554.424z
				 M59.67,43.84c-8.161,0-14.8,6.639-14.8,14.8v479.985c0,8.16,6.639,14.799,14.8,14.799h149.074c8.161,0,14.8-6.639,14.8-14.799
				V58.64c0-8.161-6.639-14.8-14.8-14.8H59.67z" fill="white"/>
		</g>
		<g>
			<path d="M537.593,0.5H388.52c-32.059,0-58.141,26.082-58.141,58.14v479.983c0,32.059,26.082,58.141,58.141,58.141h149.073
				c32.059,0,58.141-26.082,58.141-58.141V58.64C595.734,26.583,569.652,0.5,537.593,0.5z M552.894,538.625
				c0,8.449-6.851,15.299-15.301,15.299H388.52c-8.45,0-15.301-6.85-15.301-15.299V58.64c0-8.45,6.851-15.3,15.301-15.3h149.073
				c8.45,0,15.301,6.85,15.301,15.3V538.625L552.894,538.625z" fill="white"/>
			<path d="M537.593,597.264H388.52c-32.335,0-58.641-26.306-58.641-58.641V58.64C329.879,26.306,356.185,0,388.52,0h149.073
				c32.335,0,58.641,26.306,58.641,58.64v479.983C596.234,570.958,569.928,597.264,537.593,597.264z M388.52,1
				c-31.783,0-57.641,25.857-57.641,57.64v479.983c0,31.783,25.857,57.641,57.641,57.641h149.073
				c31.783,0,57.641-25.857,57.641-57.641V58.64c0-31.783-25.857-57.64-57.641-57.64H388.52z M537.593,554.424H388.52
				c-8.713,0-15.801-7.087-15.801-15.799V58.64c0-8.712,7.088-15.8,15.801-15.8h149.073c8.713,0,15.801,7.088,15.801,15.8v479.985
				C553.394,547.337,546.306,554.424,537.593,554.424z M388.52,43.84c-8.161,0-14.801,6.639-14.801,14.8v479.985
				c0,8.16,6.64,14.799,14.801,14.799h149.073c8.161,0,14.801-6.639,14.801-14.799V58.64c0-8.161-6.64-14.8-14.801-14.8H388.52z" fill="white"/>
		</g>
	</g>
</g>
<g>
</g>
<g>
</g>
<g>
</g>
<g>
</g>
<g>
</g>
<g>
</g>
<g>
</g>
<g>
</g>
<g>
</g>
<g>
</g>
<g>
</g>
<g>
</g>
<g>
</g>
<g>
</g>
<g>
</g>
</svg>
