<?xml version="1.0" encoding="iso-8859-1"?>
<!-- Generator: Adobe Illustrator 19.0.0, SVG Export Plug-In . SVG Version: 6.00 Build 0)  -->
<svg version="1.1" id="Layer_1" xmlns="http://www.w3.org/2000/svg" xmlns:xlink="http://www.w3.org/1999/xlink" x="0px" y="0px"
	 viewBox="0 0 512 512" style="enable-background:new 0 0 512 512;" xml:space="preserve">
<g>
	<g>
		<g>
			<path d="M448,0H128.725H128H64C52.218,0,42.667,9.551,42.667,21.333v469.333C42.667,502.449,52.218,512,64,512h64h0.725H448
				c11.782,0,21.333-9.551,21.333-21.333V21.333C469.333,9.551,459.782,0,448,0z M85.333,42.667h21.333v426.667H85.333V42.667z
				 M426.667,469.333H150.059V42.667h276.608V469.333z"/>
			<path d="M192,213.333h192c11.782,0,21.333-9.551,21.333-21.333v-85.333c0-11.782-9.551-21.333-21.333-21.333H192
				c-11.782,0-21.333,9.551-21.333,21.333V192C170.667,203.782,180.218,213.333,192,213.333z M213.333,128h149.333v42.667H213.333
				V128z"/>
		</g>
	</g>
</g>
<g>
</g>
<g>
</g>
<g>
</g>
<g>
</g>
<g>
</g>
<g>
</g>
<g>
</g>
<g>
</g>
<g>
</g>
<g>
</g>
<g>
</g>
<g>
</g>
<g>
</g>
<g>
</g>
<g>
</g>
</svg>
