<?xml version="1.0" encoding="iso-8859-1"?>
<!-- Generator: Adobe Illustrator 16.0.0, SVG Export Plug-In . SVG Version: 6.00 Build 0)  -->
<!DOCTYPE svg PUBLIC "-//W3C//DTD SVG 1.1//EN" "http://www.w3.org/Graphics/SVG/1.1/DTD/svg11.dtd">
<svg version="1.1" id="Capa_1" xmlns="http://www.w3.org/2000/svg" xmlns:xlink="http://www.w3.org/1999/xlink" x="0px" y="0px"
	 viewBox="0 0 592.838 592.838" style="enable-background:new 0 0 592.838 592.838;"
	 xml:space="preserve">
<g>
	<g>
		<g>
			<path d="M534.176,97.078c-10.15,0-20.195,2.702-29.049,7.813L260.601,246.069c-9.16,5.289-16.693,12.941-21.787,22.129
				c-4.765,8.596-7.283,18.355-7.283,28.221c0,9.866,2.519,19.625,7.283,28.221c5.093,9.189,12.627,16.842,21.788,22.131
				l244.527,141.178c8.85,5.109,18.895,7.811,29.047,7.811c32.07,0,58.162-26.092,58.162-58.162V155.241
				C592.338,123.17,566.246,97.078,534.176,97.078z M549.498,437.598c0,8.932-7.33,15.322-15.322,15.322
				c-2.547,0-5.162-0.648-7.627-2.072L282.021,309.67c-10.2-5.889-10.2-20.612,0-26.501l244.528-141.178
				c2.465-1.424,5.078-2.073,7.627-2.073c7.99,0,15.322,6.392,15.322,15.323V437.598L549.498,437.598z" fill="white"/>
			<path d="M534.176,496.26c-10.24,0-20.371-2.724-29.297-7.878L260.352,347.204c-9.239-5.334-16.838-13.053-21.976-22.321
				c-4.805-8.67-7.345-18.513-7.345-28.463c0-9.952,2.54-19.795,7.345-28.463c5.138-9.268,12.737-16.986,21.975-22.32
				l244.526-141.178c8.93-5.155,19.061-7.88,29.299-7.88c32.347,0,58.662,26.316,58.662,58.663v282.357
				C592.838,469.944,566.522,496.26,534.176,496.26z M534.176,97.578c-10.062,0-20.021,2.679-28.799,7.746L260.851,246.502
				c-9.081,5.243-16.55,12.829-21.6,21.938c-4.724,8.521-7.22,18.196-7.22,27.979c0,9.782,2.497,19.457,7.22,27.979
				c5.049,9.109,12.518,16.696,21.601,21.94l244.527,141.178c8.774,5.065,18.732,7.743,28.797,7.743
				c31.795,0,57.662-25.867,57.662-57.662V155.241C591.838,123.445,565.971,97.578,534.176,97.578z M534.176,453.42
				c-2.77,0-5.42-0.72-7.877-2.14L281.771,310.103c-4.947-2.855-7.9-7.971-7.9-13.683s2.953-10.828,7.9-13.684l244.528-141.178
				c2.458-1.42,5.108-2.14,7.877-2.14c8.725,0,15.822,7.098,15.822,15.823v282.357C549.998,446.322,542.9,453.42,534.176,453.42z
				 M534.176,140.417c-2.591,0-5.072,0.675-7.377,2.006L282.271,283.602c-4.634,2.675-7.4,7.466-7.4,12.817s2.766,10.142,7.4,12.818
				l244.528,141.178c2.304,1.33,4.785,2.005,7.377,2.005c8.173,0,14.822-6.649,14.822-14.822V155.24
				C548.998,147.067,542.349,140.417,534.176,140.417z" fill="white"/>
		</g>
		<g>
			<path d="M136.109,98.098H58.64c-32.059,0-58.14,26.082-58.14,58.14V432.74c0,32.059,26.082,58.141,58.14,58.141h77.469
				c32.059,0,58.14-26.082,58.14-58.141V156.238C194.249,124.179,168.167,98.098,136.109,98.098z M151.409,432.74
				c0,8.449-6.85,15.299-15.3,15.299H58.64c-8.45,0-15.3-6.85-15.3-15.299V156.238c0-8.45,6.85-15.3,15.3-15.3h77.469
				c8.45,0,15.3,6.85,15.3,15.3V432.74z" fill="white"/>
			<path d="M136.109,491.381H58.64C26.306,491.381,0,465.075,0,432.74V156.238c0-32.334,26.306-58.64,58.64-58.64h77.469
				c32.334,0,58.64,26.306,58.64,58.64V432.74C194.749,465.075,168.443,491.381,136.109,491.381z M58.64,98.598
				C26.857,98.598,1,124.455,1,156.238V432.74c0,31.783,25.857,57.641,57.64,57.641h77.469c31.783,0,57.64-25.857,57.64-57.641
				V156.238c0-31.783-25.857-57.64-57.64-57.64H58.64z M136.109,448.539H58.64c-8.712,0-15.8-7.087-15.8-15.799V156.238
				c0-8.712,7.088-15.8,15.8-15.8h77.469c8.712,0,15.8,7.088,15.8,15.8V432.74C151.909,441.452,144.821,448.539,136.109,448.539z
				 M58.64,141.438c-8.161,0-14.8,6.639-14.8,14.8V432.74c0,8.16,6.639,14.799,14.8,14.799h77.469c8.161,0,14.8-6.639,14.8-14.799
				V156.238c0-8.161-6.639-14.8-14.8-14.8H58.64z" fill="white"/>
		</g>
	</g>
</g>
<g>
</g>
<g>
</g>
<g>
</g>
<g>
</g>
<g>
</g>
<g>
</g>
<g>
</g>
<g>
</g>
<g>
</g>
<g>
</g>
<g>
</g>
<g>
</g>
<g>
</g>
<g>
</g>
<g>
</g>
</svg>
